<svg version="1.1" id="Layer_1" xmlns="http://www.w3.org/2000/svg" xmlns:xlink="http://www.w3.org/1999/xlink" x="0px" y="0px"
	 width="100%" viewBox="0 0 2880 1800" enable-background="new 0 0 2880 1800" xml:space="preserve">
<path fill="#161622" opacity="1.000000" stroke="none" 
	d="
M1898.000000,1802.000000 
	C1265.333374,1802.000000 633.666687,1802.000000 2.000000,1802.000000 
	C2.000000,1202.000000 2.000000,602.000000 2.000000,2.000000 
	C962.000000,2.000000 1922.000000,2.000000 2882.000000,2.000000 
	C2882.000000,602.000000 2882.000000,1202.000000 2882.000000,1802.000000 
	C2554.333252,1802.000000 2226.666748,1802.000000 1898.000000,1802.000000 
M1376.089600,1077.646362 
	C1373.008667,1080.677612 1368.443848,1082.829590 1369.509033,1090.251709 
	C1373.827271,1086.347290 1377.193359,1083.303955 1382.633667,1079.293335 
	C1383.545044,1078.108765 1384.456299,1076.924194 1385.503662,1075.562866 
	C1381.896362,1073.021729 1379.721802,1075.160156 1376.089600,1077.646362 
M1105.436890,1143.942749 
	C1108.291870,1140.707153 1110.990356,1137.311279 1114.069336,1134.305176 
	C1115.556885,1132.852783 1117.759399,1132.132812 1119.005615,1132.747925 
	C1118.625366,1135.715454 1117.993286,1138.677612 1117.931274,1141.651733 
	C1117.860229,1145.050781 1115.756958,1150.445923 1120.340576,1151.081421 
	C1126.604248,1151.949829 1124.620117,1145.359497 1125.052979,1142.172363 
	C1128.322754,1118.099609 1131.092163,1093.959229 1134.033569,1069.841675 
	C1135.242432,1059.931152 1136.644775,1050.041016 1137.660278,1040.111084 
	C1138.230225,1034.536987 1137.464600,1034.175537 1130.573486,1035.461426 
	C1128.726196,1049.141479 1126.868896,1062.895752 1124.926636,1077.279297 
	C1122.717773,1076.450928 1121.318726,1076.283813 1120.404785,1075.529175 
	C1108.873291,1066.008667 1091.518677,1067.800293 1079.539429,1081.872437 
	C1068.468018,1094.878052 1063.879272,1110.271851 1064.400269,1127.195801 
	C1064.511475,1130.809814 1065.190063,1134.523682 1066.299316,1137.968628 
	C1070.250000,1150.236694 1080.954956,1155.695557 1093.175781,1151.517334 
	C1096.506958,1150.378296 1099.367432,1147.862671 1103.240967,1145.814331 
	C1103.762451,1145.544922 1104.077271,1145.121582 1105.436890,1143.942749 
M2001.563721,1133.558472 
	C2001.136475,1139.036377 2000.709229,1144.514160 2000.440308,1150.965698 
	C2002.413208,1150.689331 2004.386230,1150.412842 2007.130859,1149.258179 
	C2007.215210,1148.111572 2007.299561,1146.964844 2007.841064,1144.927002 
	C2007.904297,1143.280029 2007.967651,1141.633179 2008.557495,1138.418335 
	C2010.414307,1125.931274 2012.271118,1113.444336 2014.407959,1100.510254 
	C2014.489380,1100.133057 2014.382080,1099.821655 2015.625854,1098.049683 
	C2016.085083,1097.491699 2016.544434,1096.933716 2017.860352,1095.438110 
	C2023.454712,1085.737671 2029.345581,1076.603638 2042.815063,1077.788574 
	C2044.113525,1077.902832 2045.660889,1075.186279 2047.092773,1073.783813 
	C2045.750732,1072.588013 2044.566650,1070.657104 2043.038208,1070.328369 
	C2037.471558,1069.131470 2032.456665,1071.210327 2028.400269,1074.793701 
	C2024.976196,1077.818359 2022.247070,1081.630249 2019.217529,1085.099854 
	C2017.696289,1086.842285 2016.284058,1089.123291 2014.352783,1084.515991 
	C2014.683228,1081.656616 2015.504272,1078.736816 2015.162231,1075.960205 
	C2014.953003,1074.260864 2012.958618,1072.781250 2011.765991,1071.203003 
	C2010.740601,1072.868042 2009.715332,1074.533081 2008.227661,1077.078613 
	C2008.163940,1078.713013 2008.100220,1080.347290 2007.508789,1083.556152 
	C2005.894897,1097.771729 2004.281128,1111.987427 2002.206055,1127.081299 
	C2002.151245,1128.715210 2002.096436,1130.348999 2001.563721,1133.558472 
M1743.861816,1105.166260 
	C1743.844727,1104.135010 1743.827637,1103.103638 1744.246338,1100.532715 
	C1744.704346,1096.319214 1745.162476,1092.105835 1746.012085,1087.185547 
	C1745.988525,1086.131470 1745.964966,1085.077271 1746.471436,1082.215088 
	C1746.779907,1079.047485 1747.088379,1075.879883 1747.382690,1072.858154 
	C1743.038330,1070.491211 1740.365479,1070.883789 1739.677490,1075.468506 
	C1739.049927,1079.650635 1738.755737,1083.882935 1737.922852,1088.809814 
	C1737.943237,1089.875610 1737.963623,1090.941406 1737.478149,1093.400513 
	C1737.215820,1096.335083 1736.953491,1099.269775 1736.223633,1103.077393 
	C1736.176636,1104.707031 1736.129761,1106.336670 1735.603760,1109.586304 
	C1734.959106,1117.746704 1733.767456,1125.912231 1733.841431,1134.066040 
	C1733.901367,1140.671997 1735.694336,1147.145752 1743.399658,1151.064331 
	C1744.949463,1151.413208 1746.499390,1151.762085 1749.607544,1152.557739 
	C1751.738037,1152.372437 1753.868530,1152.187256 1756.954834,1152.187866 
	C1758.428955,1151.560059 1759.902954,1150.932129 1763.574951,1149.422852 
	C1765.788452,1146.728760 1766.297241,1144.677734 1761.686523,1144.993774 
	C1760.417114,1145.080811 1759.188354,1145.760620 1756.632568,1145.978638 
	C1754.427002,1146.000244 1752.221558,1146.021851 1748.662964,1145.138916 
	C1746.499512,1142.768799 1744.336060,1140.398560 1742.259766,1137.037598 
	C1741.961060,1136.101440 1741.662231,1135.165283 1741.539429,1132.466797 
	C1741.526611,1128.927979 1741.513794,1125.389038 1741.963623,1120.945801 
	C1742.024658,1119.274780 1742.085693,1117.603638 1742.652466,1114.558472 
	C1742.919922,1111.652222 1743.187378,1108.745850 1743.861816,1105.166260 
M1365.630615,1097.880859 
	C1367.695923,1094.289429 1369.761108,1090.697998 1372.316406,1086.254272 
	C1367.698120,1087.048462 1364.803345,1087.546265 1362.355469,1086.466064 
	C1362.758301,1082.934692 1363.478027,1079.398071 1363.419312,1075.874390 
	C1363.393188,1074.301758 1361.802734,1072.755127 1360.922241,1071.196533 
	C1359.486450,1072.559692 1357.898193,1073.803589 1356.691528,1075.346069 
	C1356.223267,1075.944580 1356.617188,1077.217651 1356.160522,1079.073242 
	C1356.099121,1080.718994 1356.037598,1082.364868 1355.459351,1085.583496 
	C1353.854248,1099.787598 1352.249146,1113.991821 1350.184082,1129.074829 
	C1350.139526,1130.709595 1350.095093,1132.344360 1349.593018,1135.420776 
	C1349.069580,1139.036499 1348.380005,1142.637695 1348.061646,1146.271362 
	C1347.575439,1151.818604 1350.638916,1152.154053 1355.432129,1150.809692 
	C1356.347290,1143.083008 1357.263550,1135.541992 1358.128418,1127.994873 
	C1359.260498,1118.115479 1359.996460,1108.153442 1365.630615,1097.880859 
M1301.998657,1137.952881 
	C1301.823730,1140.943970 1301.299927,1143.972290 1301.613525,1146.911255 
	C1301.783569,1148.505493 1303.379639,1149.947632 1304.332642,1151.458252 
	C1305.631348,1150.293701 1307.412109,1149.358643 1308.104004,1147.905273 
	C1308.924927,1146.181519 1308.848389,1144.016235 1309.091553,1142.033936 
	C1311.360229,1123.527710 1313.647339,1105.023804 1315.847290,1086.509521 
	C1316.346680,1082.306885 1316.529541,1078.066528 1316.941284,1072.776123 
	C1311.293945,1071.694092 1306.528931,1070.148804 1301.710815,1069.959229 
	C1267.088989,1068.597534 1241.888672,1109.272705 1252.822388,1139.890747 
	C1256.954590,1151.461914 1267.710205,1155.496704 1279.818848,1151.115845 
	C1287.808228,1148.225464 1292.193359,1141.414062 1299.812744,1136.143188 
	C1300.471558,1136.208862 1301.130249,1136.274536 1301.998657,1137.952881 
M1019.755188,1137.895142 
	C1019.502563,1140.544067 1018.823486,1143.244873 1019.136719,1145.825073 
	C1019.373169,1147.773315 1020.540039,1150.828003 1021.884094,1151.189209 
	C1025.630005,1152.195679 1025.871460,1148.850586 1026.197021,1146.179688 
	C1028.815063,1124.710449 1031.541382,1103.253540 1033.968018,1081.762573 
	C1034.932129,1073.223877 1033.825928,1072.097900 1025.346313,1070.457642 
	C1023.398010,1070.080811 1021.385620,1069.948120 1019.396729,1069.881836 
	C988.710205,1068.858521 962.218262,1102.401855 968.719299,1134.020630 
	C972.480774,1152.315063 988.086060,1158.617432 1003.290527,1147.635742 
	C1007.804993,1144.375244 1011.408081,1139.852783 1017.507507,1136.077881 
	C1018.200684,1136.130859 1018.893799,1136.183838 1019.755188,1137.895142 
M926.727356,927.536011 
	C960.836548,916.501343 982.191162,893.296387 992.060547,859.109863 
	C996.628052,843.288635 998.120178,827.098572 998.112854,810.701538 
	C998.090271,759.736877 998.126770,708.772278 998.096741,657.807617 
	C998.095032,654.903503 997.703674,651.999634 997.462708,648.667297 
	C990.749451,648.667297 984.658203,648.667297 977.582397,648.667297 
	C977.582397,653.625061 977.582520,657.921387 977.582458,662.217651 
	C977.581482,709.851257 977.834900,757.487122 977.418396,805.117126 
	C977.299561,818.708191 976.379333,832.499146 973.850159,845.823242 
	C966.380676,885.173950 941.053162,908.653442 901.361145,913.194153 
	C889.886475,914.506897 877.966797,914.444031 866.513550,912.971313 
	C828.025330,908.022095 804.193481,886.358276 796.036072,848.409180 
	C793.124329,834.863403 792.178284,820.691467 792.045227,806.789001 
	C791.580017,758.160461 791.861084,709.524841 791.858826,660.891907 
	C791.858643,656.996582 791.858826,653.101318 791.858826,648.613647 
	C784.458557,648.613647 778.338806,648.613647 771.947449,648.613647 
	C771.613586,651.062561 771.114319,653.009216 771.117004,654.955200 
	C771.194397,710.914673 770.954102,766.879150 771.719482,822.829773 
	C771.894775,835.647278 774.323364,848.770203 777.854065,861.142151 
	C788.225891,897.486633 812.329224,920.590271 849.096252,929.481323 
	C874.434998,935.608765 899.956421,935.088684 926.727356,927.536011 
M620.018005,914.130981 
	C578.119080,918.205994 539.926636,909.518311 507.146912,880.338928 
	C504.012207,885.487366 501.294556,889.950867 498.388855,894.723267 
	C506.249908,904.338318 515.980652,910.674194 526.382629,915.948914 
	C564.340515,935.196594 604.074646,938.177551 645.003296,927.987122 
	C656.727966,925.067993 667.387329,919.585449 677.169373,912.351929 
	C707.164185,890.172119 718.428894,832.912415 673.991089,805.071289 
	C668.102722,801.382080 661.853577,797.953186 655.329773,795.660950 
	C642.773987,791.249390 629.938843,787.611633 617.152039,783.884338 
	C600.847473,779.131653 584.398682,774.861511 568.159546,769.900635 
	C556.549011,766.353821 545.787598,760.735107 537.840332,751.345764 
	C533.858521,746.641479 530.281799,740.971069 528.507690,735.134033 
	C522.297363,714.701355 529.437805,693.828918 546.225586,680.593567 
	C554.495850,674.073425 563.921448,669.972717 574.143372,667.770996 
	C609.119934,660.237366 642.353943,665.104431 673.836243,682.063721 
	C676.977295,683.755798 680.112305,685.459045 684.090393,687.611877 
	C686.623169,681.899414 688.832092,676.917358 691.271606,671.415222 
	C687.382385,669.005920 684.401245,666.951660 681.238220,665.231995 
	C651.293396,648.952393 619.315308,643.344788 585.567566,647.173035 
	C567.105164,649.267334 549.854370,654.444519 534.262146,665.140198 
	C498.180817,689.890381 489.870056,757.810791 545.473328,782.258606 
	C549.434692,784.000366 553.416504,785.779480 557.539368,787.054382 
	C569.627930,790.792542 581.757385,794.409851 593.936401,797.841492 
	C609.002380,802.086609 624.194336,805.892151 639.217834,810.278381 
	C650.217224,813.489807 660.081177,819.034424 668.686584,826.688477 
	C677.076538,834.150879 681.447876,843.551819 682.309021,854.699524 
	C684.040710,877.116882 674.294373,893.229919 655.151001,904.122986 
	C644.832764,909.994446 633.485535,912.554504 620.018005,914.130981 
M1471.006348,777.905823 
	C1488.603271,787.924438 1508.085938,792.595886 1527.381348,797.806152 
	C1542.494263,801.887024 1557.651733,805.817078 1572.682861,810.181335 
	C1583.687256,813.376465 1593.560181,818.888550 1602.218872,826.479980 
	C1610.671143,833.890503 1615.137451,843.276184 1616.051147,854.398315 
	C1617.962891,877.669800 1606.915161,895.962341 1584.742065,906.282959 
	C1572.439209,912.009399 1559.300415,914.115479 1545.920532,914.779785 
	C1508.328979,916.646118 1473.726807,908.758850 1444.665527,883.178040 
	C1443.716309,882.342407 1442.489868,881.821594 1440.710815,880.739197 
	C1437.789307,885.487854 1435.052246,889.936829 1432.100586,894.734619 
	C1439.772461,904.017151 1449.161377,910.285828 1459.218140,915.468323 
	C1497.388184,935.138062 1537.506714,938.549500 1578.670776,927.777039 
	C1589.083618,925.052002 1599.259399,919.844360 1608.354614,913.943909 
	C1641.375977,892.521423 1653.217041,832.214417 1606.110352,803.950745 
	C1600.712646,800.712036 1595.034302,797.669739 1589.108154,795.639221 
	C1576.513428,791.324036 1563.707153,787.607910 1550.919312,783.880310 
	C1534.613770,779.127563 1518.166016,774.851746 1501.922729,769.900818 
	C1490.644043,766.463196 1480.034912,761.151978 1472.328491,752.039551 
	C1467.944580,746.855896 1463.934204,740.590332 1462.112915,734.145813 
	C1456.124146,712.956238 1463.517456,691.975830 1481.744263,679.623596 
	C1489.557861,674.328308 1498.785522,670.151001 1507.964111,668.010620 
	C1542.803955,659.886230 1576.119873,665.096497 1607.597900,682.073914 
	C1610.722168,683.758972 1613.841187,685.453613 1617.814819,687.605225 
	C1620.387451,682.052612 1622.561401,677.360535 1624.598267,672.964050 
	C1623.567383,671.453552 1623.183105,670.396423 1622.428833,669.876282 
	C1619.966309,668.178650 1617.445312,666.534241 1614.811646,665.121277 
	C1580.556274,646.742737 1544.291504,641.977783 1506.281982,649.248108 
	C1494.731201,651.457458 1483.934570,655.558167 1473.675537,661.412903 
	C1431.638794,685.402832 1425.670166,751.846802 1471.006348,777.905823 
M1218.780029,774.175293 
	C1223.364746,776.872864 1227.661743,780.391907 1232.587158,782.116882 
	C1248.590942,787.722107 1264.744507,792.938538 1280.993286,797.793213 
	C1295.980103,802.270813 1311.393311,805.415161 1326.175781,810.447876 
	C1335.171265,813.510437 1343.886475,818.225464 1351.742065,823.630554 
	C1367.046387,834.160950 1371.666138,849.703003 1369.018555,867.539062 
	C1366.151245,886.855957 1353.961548,898.892456 1336.983398,906.741821 
	C1324.999878,912.282166 1312.120972,914.156555 1299.089233,914.791626 
	C1261.138306,916.641113 1226.297485,908.504944 1197.150024,882.469360 
	C1196.482788,881.873352 1195.451294,881.685303 1193.670288,880.903259 
	C1190.982666,885.446228 1188.336060,889.919861 1185.477905,894.751038 
	C1192.379150,903.293152 1200.885864,909.049988 1209.906128,914.025513 
	C1245.289917,933.543091 1283.040039,937.366211 1322.280640,930.367310 
	C1336.891113,927.761414 1350.311523,922.124084 1362.556641,913.628967 
	C1394.506104,891.463562 1405.873657,832.540283 1360.387085,804.573669 
	C1354.748047,801.106628 1348.788330,797.866577 1342.566406,795.703979 
	C1329.999390,791.336121 1317.187012,787.653870 1304.407715,783.922302 
	C1287.793945,779.071045 1271.031372,774.714722 1254.490601,769.632324 
	C1243.219604,766.169128 1233.217407,760.238098 1224.902466,751.651978 
	C1219.386475,745.956238 1215.805664,739.257812 1214.610107,731.506287 
	C1211.147705,709.055908 1217.633667,690.355591 1237.302002,678.010315 
	C1244.762207,673.327759 1253.414551,669.733521 1262.008423,667.810181 
	C1296.900879,660.001465 1330.155762,665.305481 1361.536987,682.411743 
	C1364.404175,683.974731 1367.259277,685.559998 1371.007690,687.623657 
	C1373.617432,682.013977 1375.923096,677.058228 1378.499390,671.520447 
	C1373.830688,668.690430 1370.014038,666.079590 1365.942993,663.956726 
	C1336.393188,648.547852 1304.997437,643.382812 1272.000000,647.255798 
	C1252.844727,649.504089 1235.004883,654.969482 1219.262573,666.749146 
	C1185.731934,691.838989 1182.671875,749.938843 1218.780029,774.175293 
M2105.310547,826.751526 
	C2109.435059,817.647217 2113.558105,808.542297 2117.684082,799.438538 
	C2135.149414,760.901550 2152.578613,722.348083 2170.146729,683.857910 
	C2171.675049,680.509888 2172.177490,676.092651 2177.237793,674.514709 
	C2178.937256,678.015015 2180.593262,681.248169 2182.097412,684.550354 
	C2207.922607,741.245667 2233.729736,797.949158 2259.539551,854.651550 
	C2270.028809,877.695984 2280.446289,900.774048 2291.093262,923.745544 
	C2292.400391,926.566040 2294.620850,930.588379 2296.948730,930.992004 
	C2302.864014,932.017456 2309.220459,932.689087 2315.844238,930.019897 
	C2314.265869,926.266663 2313.082520,923.210510 2311.716309,920.238464 
	C2277.484863,845.773438 2243.233887,771.317322 2208.987061,696.859253 
	C2202.583252,682.936340 2195.943848,669.114563 2189.901611,655.036377 
	C2187.553711,649.565125 2184.314453,647.148376 2178.488281,647.956909 
	C2176.853516,648.183777 2175.124512,648.215149 2173.501221,647.951599 
	C2167.430176,646.965759 2164.661865,650.150940 2162.291504,655.323425 
	C2121.346191,744.668030 2080.240967,833.939026 2039.217163,923.247620 
	C2038.183838,925.497070 2037.678711,927.989258 2036.729004,930.995605 
	C2040.328247,931.236572 2042.978027,931.209534 2045.557129,931.623779 
	C2054.404297,933.045288 2059.108398,929.638855 2062.794922,921.057251 
	C2076.204102,889.840515 2090.609375,859.051636 2105.310547,826.751526 
M1094.330444,914.792358 
	C1094.330444,920.008240 1094.330444,925.224121 1094.330444,930.918457 
	C1101.908203,930.918457 1107.998535,930.918457 1114.648804,930.918457 
	C1114.648804,836.462158 1114.648804,742.740112 1114.648804,648.644775 
	C1107.812134,648.644775 1101.692383,648.644775 1094.330444,648.644775 
	C1094.330444,737.172241 1094.330444,825.007385 1094.330444,914.792358 
M2368.185791,833.000000 
	C2368.363037,864.966736 2368.539062,896.933472 2368.733887,928.900085 
	C2368.735840,929.196716 2368.954102,929.513977 2369.132080,929.781433 
	C2369.314697,930.055847 2369.571777,930.280823 2370.250488,931.026489 
	C2375.691895,931.026489 2381.544434,931.026489 2387.271240,931.026489 
	C2389.922119,920.985596 2389.522217,656.023621 2386.982910,648.692871 
	C2381.115234,648.692871 2375.272217,648.692871 2368.185791,648.692871 
	C2368.185791,709.913513 2368.185791,770.456787 2368.185791,833.000000 
M1743.002930,931.652893 
	C1791.769775,931.652893 1840.536743,931.652893 1889.233643,931.652893 
	C1890.895142,924.523010 1891.941040,918.787903 1888.585327,913.243164 
	C1828.458862,913.243164 1768.713257,913.243164 1708.910522,913.243164 
	C1706.534790,919.567322 1706.355957,925.245605 1709.192749,931.652832 
	C1719.776489,931.652832 1730.390991,931.652832 1743.002930,931.652893 
M1735.023193,778.238708 
	C1726.184814,778.238708 1717.346436,778.238708 1708.266479,778.238708 
	C1708.266479,785.091003 1708.266479,790.469238 1708.266479,795.695740 
	C1722.779297,797.648376 1882.199829,797.003845 1889.620117,795.042542 
	C1889.620117,789.680054 1889.620117,784.296082 1889.620117,778.238708 
	C1838.107666,778.238708 1787.561768,778.238708 1735.023193,778.238708 
M1848.998047,666.711548 
	C1862.518799,666.681519 1876.039551,666.651489 1889.799438,666.620911 
	C1889.799438,659.672729 1889.799438,654.220215 1889.799438,648.492920 
	C1828.924683,648.492920 1768.810181,648.492920 1708.005859,648.492920 
	C1708.005859,654.435669 1708.005859,659.902832 1708.005859,666.711182 
	C1754.719604,666.711182 1800.858887,666.711182 1848.998047,666.711548 
M886.965698,1137.975830 
	C895.210083,1126.833496 898.922485,1114.290039 898.264282,1100.498535 
	C897.672791,1088.104614 893.576355,1077.400513 881.376221,1072.165894 
	C869.229675,1066.954224 857.843323,1069.621948 847.708984,1077.692017 
	C832.510498,1089.794800 825.242126,1115.827881 831.787354,1134.065674 
	C836.147949,1146.216187 845.409668,1152.673950 858.410217,1152.777466 
	C869.966980,1152.869629 878.777283,1147.523438 886.965698,1137.975830 
M2101.625244,1069.838745 
	C2092.559326,1070.404907 2084.822754,1074.105225 2078.676025,1080.598267 
	C2064.511230,1095.561279 2060.441406,1113.562744 2064.720215,1133.290161 
	C2066.933105,1143.491943 2073.813965,1150.251587 2084.426025,1152.151001 
	C2099.121338,1154.781250 2111.270020,1149.751831 2121.159912,1138.928223 
	C2121.969238,1138.042358 2121.675049,1136.148071 2122.194824,1132.758179 
	C2118.479736,1134.939453 2116.301025,1136.115479 2114.230713,1137.458374 
	C2111.170410,1139.443604 2108.414307,1142.070801 2105.126709,1143.500000 
	C2096.122803,1147.414185 2086.712158,1148.420288 2078.726318,1141.705200 
	C2070.510986,1134.797363 2070.080566,1125.247437 2071.667725,1115.118042 
	C2081.455078,1113.208130 2090.732666,1112.061890 2099.581299,1109.457520 
	C2106.464600,1107.431763 2113.673340,1104.681763 2119.215088,1100.319824 
	C2129.703369,1092.064697 2127.095703,1077.251221 2114.785889,1072.037354 
	C2111.237305,1070.534302 2107.061279,1070.512695 2101.625244,1069.838745 
M1567.623169,1110.249146 
	C1573.819824,1107.920898 1580.348145,1106.211548 1586.131348,1103.111694 
	C1593.817993,1098.991455 1597.093994,1091.249146 1595.593750,1083.901611 
	C1594.157593,1076.866943 1587.600220,1071.216064 1579.087891,1070.046997 
	C1569.774780,1068.767700 1561.259888,1071.025635 1553.645142,1076.541992 
	C1537.381226,1088.324219 1528.793945,1115.941284 1535.478882,1134.960205 
	C1539.293579,1145.812500 1546.945312,1151.736938 1558.425171,1152.692139 
	C1571.265381,1153.760376 1581.864380,1149.105957 1590.620605,1139.936157 
	C1591.645264,1138.863037 1592.119019,1137.263428 1592.973389,1135.675171 
	C1587.860352,1132.391113 1585.735352,1136.617676 1583.260498,1138.623291 
	C1575.866699,1144.614990 1567.657593,1147.333740 1558.200439,1145.857056 
	C1551.439453,1144.801636 1546.494629,1141.168457 1543.906982,1134.804321 
	C1541.368408,1128.560425 1540.314819,1122.119263 1542.647461,1114.909546 
	C1550.432739,1113.474487 1558.221191,1112.038818 1567.623169,1110.249146 
M1675.095459,1165.365723 
	C1679.006104,1137.125122 1682.916626,1108.884521 1686.755981,1081.158813 
	C1694.122437,1076.999512 1703.069702,1082.960815 1711.025635,1074.733765 
	C1702.024780,1073.798584 1695.069702,1073.075928 1687.939453,1072.335083 
	C1687.939453,1070.003784 1687.862305,1068.682983 1687.951172,1067.373535 
	C1689.189941,1049.124756 1694.148560,1043.984619 1712.390503,1041.654419 
	C1713.574219,1041.503174 1714.580933,1039.968018 1716.498413,1038.398560 
	C1713.943115,1037.233154 1712.592529,1036.263184 1711.115967,1035.999146 
	C1697.725586,1033.605225 1686.291138,1041.412842 1682.167969,1055.994141 
	C1680.654663,1061.345459 1679.851318,1066.897583 1678.797974,1072.000366 
	C1674.527100,1073.200562 1670.986938,1074.195312 1667.446777,1075.190186 
	C1667.466797,1075.841431 1667.486938,1076.492798 1667.506958,1077.144043 
	C1670.978149,1078.413086 1674.449341,1079.682129 1678.337646,1081.103516 
	C1676.505737,1096.373047 1674.538208,1111.189087 1672.998535,1126.049438 
	C1671.447876,1141.018311 1668.147217,1155.869507 1668.348755,1170.766846 
	C1673.458984,1172.182373 1673.937988,1169.249268 1675.095459,1165.365723 
M1176.385864,1117.279175 
	C1176.918457,1119.200806 1177.463257,1121.119141 1177.981689,1123.044556 
	C1179.969238,1130.426025 1181.967773,1137.804565 1183.920654,1145.195190 
	C1184.700684,1148.146851 1185.433228,1151.732910 1189.166626,1151.275635 
	C1191.237061,1151.022217 1193.049927,1148.427002 1194.902466,1146.800537 
	C1195.368042,1146.391724 1195.542358,1145.649292 1195.845703,1145.057739 
	C1207.223267,1122.875122 1218.619141,1100.701904 1229.944092,1078.492554 
	C1230.933350,1076.552246 1231.454712,1074.373535 1232.265381,1072.104492 
	C1225.648438,1069.328369 1224.177979,1074.124146 1222.319458,1077.756226 
	C1213.537598,1094.918457 1204.897461,1112.152832 1196.169067,1129.342407 
	C1194.736206,1132.164307 1193.115234,1134.890869 1190.796631,1139.078369 
	C1189.407837,1135.100952 1188.512085,1132.993042 1187.933350,1130.801392 
	C1184.623779,1118.269165 1181.390137,1105.717163 1178.129395,1093.172119 
	C1176.624390,1087.381714 1175.167725,1081.578125 1173.593018,1075.806763 
	C1172.382690,1071.370605 1169.766724,1069.911987 1164.576172,1072.501343 
	C1168.395630,1086.955566 1172.192261,1101.323853 1176.385864,1117.279175 
M784.016479,1060.124146 
	C783.518433,1054.486938 787.270630,1048.804443 783.805603,1041.258179 
	C781.778625,1044.239502 780.116394,1045.765503 779.612183,1047.608398 
	C778.387024,1052.086548 777.670471,1056.706299 776.801819,1061.279175 
	C774.682495,1072.435791 774.691650,1072.423096 763.761414,1074.565674 
	C763.312134,1074.653687 763.015625,1075.520874 762.477051,1076.259521 
	C763.452271,1082.490723 770.623657,1077.361694 773.169006,1082.972534 
	C772.516541,1088.514893 771.693420,1095.421021 770.892456,1102.329712 
	C769.590515,1113.559570 767.848511,1124.762085 767.126099,1136.029541 
	C766.249451,1149.701904 775.415771,1156.288940 788.478699,1151.819702 
	C791.243408,1150.874023 793.916199,1149.244629 796.152832,1147.361816 
	C797.141785,1146.529297 796.937866,1144.279907 797.581543,1141.217163 
	C793.158936,1143.167114 790.318542,1144.787354 787.266052,1145.691040 
	C780.236023,1147.772339 775.446045,1144.321289 774.925537,1137.021362 
	C774.808838,1135.384277 775.069519,1133.707886 775.265930,1132.062744 
	C777.000366,1117.533325 778.706665,1103.000122 780.556702,1088.485352 
	C780.917786,1085.652710 781.865479,1082.895020 782.661743,1079.611328 
	C787.352356,1079.611328 791.341492,1079.911865 795.261597,1079.520874 
	C798.698792,1079.178101 803.495422,1081.537231 805.445679,1074.522949 
	C797.907837,1073.808960 790.893494,1073.144531 783.150818,1072.411133 
	C783.414612,1068.414062 783.627930,1065.182129 784.016479,1060.124146 
M1854.187134,1046.486450 
	C1853.484497,1045.214111 1852.781738,1043.941895 1851.130493,1040.952393 
	C1845.614990,1052.101807 1846.704468,1063.231323 1843.058594,1071.717773 
	C1838.863892,1075.156250 1833.237183,1071.841431 1830.255859,1077.867676 
	C1834.342285,1078.986816 1837.913086,1079.964722 1842.093506,1081.109619 
	C1840.998413,1090.618774 1839.909424,1099.842285 1838.880737,1109.072388 
	C1837.812378,1118.658203 1836.411255,1128.229248 1835.888916,1137.846558 
	C1835.463867,1145.672485 1838.505981,1150.375122 1844.340332,1152.078003 
	C1852.294434,1154.399536 1859.521118,1152.558716 1865.497070,1146.800049 
	C1866.285400,1146.040283 1865.843506,1144.003906 1865.965576,1142.626221 
	C1864.839844,1142.439209 1864.468872,1142.254761 1864.202637,1142.353516 
	C1862.672485,1142.920166 1861.151855,1143.518677 1859.656250,1144.171021 
	C1848.549194,1149.016235 1842.994385,1145.254639 1844.032837,1132.986694 
	C1845.042725,1121.056763 1846.717651,1109.181396 1848.196289,1097.293823 
	C1848.885742,1091.751099 1849.801147,1086.236572 1850.775391,1079.614014 
	C1855.057739,1079.614014 1858.627686,1079.703491 1862.191406,1079.589355 
	C1865.922974,1079.469971 1869.648315,1079.154785 1873.376465,1078.925293 
	C1873.452393,1077.953979 1873.528320,1076.982788 1873.604248,1076.011597 
	C1867.842773,1069.913452 1858.590088,1076.299072 1851.713257,1071.235596 
	C1852.515259,1063.678955 1853.352173,1055.794067 1854.187134,1046.486450 
M1475.308594,1078.814819 
	C1483.926147,1074.935059 1492.147949,1075.299438 1499.750244,1081.261108 
	C1502.366699,1083.312988 1504.746338,1084.478149 1507.625122,1080.524048 
	C1503.293579,1073.827148 1497.072144,1070.625732 1489.486572,1069.817627 
	C1479.253540,1068.727539 1470.210449,1071.923340 1462.958252,1079.007446 
	C1448.240479,1093.384155 1443.029297,1111.134766 1446.988037,1131.119507 
	C1449.963745,1146.141479 1459.671631,1152.943115 1474.903320,1152.822510 
	C1485.661255,1152.737305 1494.138916,1148.092651 1501.311035,1140.583618 
	C1502.474609,1139.365356 1502.932861,1137.473511 1503.741943,1135.843262 
	C1499.420898,1133.119019 1497.819092,1136.663574 1495.447266,1138.003052 
	C1490.857056,1140.595215 1486.476318,1144.088989 1481.528076,1145.415161 
	C1467.809570,1149.091553 1456.701538,1142.444580 1454.794800,1128.871948 
	C1452.032593,1109.209106 1456.401855,1091.718018 1475.308594,1078.814819 
M1913.941650,1099.850586 
	C1914.807373,1091.910645 1915.828979,1083.981934 1916.402222,1076.020874 
	C1916.511597,1074.500854 1914.852417,1072.853638 1914.009155,1071.265015 
	C1912.322876,1072.483521 1910.392578,1073.486206 1909.046997,1075.006226 
	C1908.305176,1075.844360 1908.502441,1077.546387 1908.348633,1078.867432 
	C1906.578369,1094.072876 1904.582031,1109.257812 1903.194702,1124.498291 
	C1902.720825,1129.703735 1903.259155,1135.154419 1904.290405,1140.301758 
	C1905.380737,1145.742798 1908.855103,1149.796631 1914.362915,1151.796265 
	C1922.277466,1154.669800 1938.477417,1151.004150 1943.530762,1140.389038 
	C1943.684692,1140.065674 1943.025513,1139.355347 1942.353394,1138.084229 
	C1940.469849,1139.152466 1938.557373,1140.138916 1936.744507,1141.283203 
	C1930.623657,1145.146851 1924.102417,1148.342651 1917.161255,1144.224854 
	C1910.050293,1140.006470 1910.463989,1132.434570 1910.990967,1125.438599 
	C1911.590332,1117.481567 1912.799072,1109.570435 1913.941650,1099.850586 
M1789.115112,1150.279053 
	C1789.971436,1146.760864 1791.171875,1143.286133 1791.622925,1139.716797 
	C1793.333252,1126.184692 1794.769897,1112.618408 1796.370361,1099.072144 
	C1797.414185,1090.239380 1798.563965,1081.419189 1799.653687,1072.693604 
	C1794.324829,1069.781616 1791.952881,1071.284790 1791.332275,1076.071777 
	C1790.134644,1085.308472 1788.608887,1094.528931 1787.983398,1103.807617 
	C1787.027222,1117.989990 1780.215820,1128.983276 1770.485596,1138.602661 
	C1768.838379,1140.230957 1766.571655,1141.311523 1765.200317,1143.109863 
	C1764.409668,1144.146973 1764.839355,1146.114746 1764.719727,1147.663452 
	C1765.323975,1148.001953 1765.928223,1148.340454 1766.532593,1148.678833 
	C1772.003174,1143.701294 1777.473755,1138.723755 1784.370239,1132.448975 
	C1784.016235,1138.375366 1783.624268,1142.556763 1783.565796,1146.742798 
	C1783.525879,1149.602539 1784.081909,1152.327026 1789.115112,1150.279053 
M1405.777832,1091.503052 
	C1404.101318,1107.394409 1402.413574,1123.284424 1400.758423,1139.178101 
	C1400.448853,1142.150391 1399.952393,1145.161255 1400.185303,1148.103516 
	C1400.280151,1149.301758 1402.205933,1151.369995 1403.093872,1151.267578 
	C1404.672119,1151.085449 1406.253418,1149.715820 1407.510010,1148.506836 
	C1408.080933,1147.957642 1407.907715,1146.608887 1408.024170,1145.617310 
	C1409.927856,1129.406250 1412.144043,1113.221680 1413.543213,1096.966919 
	C1414.015381,1091.481201 1413.022217,1085.653564 1411.586060,1080.279541 
	C1410.131348,1074.836670 1405.828979,1071.184448 1400.165283,1070.218506 
	C1394.021729,1069.170654 1387.941650,1069.432373 1381.811401,1075.421021 
	C1384.994263,1076.270020 1386.670532,1077.147827 1388.311523,1077.086304 
	C1400.825195,1076.616943 1402.445801,1077.730347 1405.777832,1091.503052 
M1943.354248,1139.619995 
	C1946.196167,1138.411865 1949.038208,1137.203857 1952.945068,1135.543091 
	C1952.945068,1140.359009 1952.699341,1144.204224 1953.085571,1147.984863 
	C1953.211670,1149.217896 1954.866333,1151.017456 1956.039917,1151.206787 
	C1957.099243,1151.377686 1958.778320,1149.927246 1959.583374,1148.772827 
	C1960.266602,1147.793091 1960.132080,1146.219971 1960.291748,1144.901367 
	C1962.854492,1123.743530 1965.422485,1102.586548 1967.937012,1081.422974 
	C1968.210693,1079.120239 1968.542480,1076.705566 1968.113770,1074.484253 
	C1967.870728,1073.224976 1966.214966,1071.484985 1965.050171,1071.364502 
	C1963.836060,1071.238892 1961.785034,1072.515015 1961.281128,1073.686401 
	C1960.389893,1075.758667 1960.314819,1078.206055 1960.036987,1080.513184 
	C1959.081787,1088.446655 1957.887451,1096.366699 1957.345093,1104.330200 
	C1956.685669,1114.013428 1952.897583,1122.314819 1947.444946,1130.077148 
	C1945.730225,1132.518188 1944.182495,1135.076538 1943.354248,1139.619995 
z"/>
<path fill="#EB0166" opacity="1.000000" stroke="none" 
	d="
M925.959595,927.759888 
	C899.956421,935.088684 874.434998,935.608765 849.096252,929.481323 
	C812.329224,920.590271 788.225891,897.486633 777.854065,861.142151 
	C774.323364,848.770203 771.894775,835.647278 771.719482,822.829773 
	C770.954102,766.879150 771.194397,710.914673 771.117004,654.955200 
	C771.114319,653.009216 771.613586,651.062561 771.947449,648.613647 
	C778.338806,648.613647 784.458557,648.613647 791.858826,648.613647 
	C791.858826,653.101318 791.858643,656.996582 791.858826,660.891907 
	C791.861084,709.524841 791.580017,758.160461 792.045227,806.789001 
	C792.178284,820.691467 793.124329,834.863403 796.036072,848.409180 
	C804.193481,886.358276 828.025330,908.022095 866.513550,912.971313 
	C877.966797,914.444031 889.886475,914.506897 901.361145,913.194153 
	C941.053162,908.653442 966.380676,885.173950 973.850159,845.823242 
	C976.379333,832.499146 977.299561,818.708191 977.418396,805.117126 
	C977.834900,757.487122 977.581482,709.851257 977.582458,662.217651 
	C977.582520,657.921387 977.582397,653.625061 977.582397,648.667297 
	C984.658203,648.667297 990.749451,648.667297 997.462708,648.667297 
	C997.703674,651.999634 998.095032,654.903503 998.096741,657.807617 
	C998.126770,708.772278 998.090271,759.736877 998.112854,810.701538 
	C998.120178,827.098572 996.628052,843.288635 992.060547,859.109863 
	C982.191162,893.296387 960.836548,916.501343 925.959595,927.759888 
z"/>
<path fill="#F50256" opacity="1.000000" stroke="none" 
	d="
M620.921265,914.050293 
	C633.485535,912.554504 644.832764,909.994446 655.151001,904.122986 
	C674.294373,893.229919 684.040710,877.116882 682.309021,854.699524 
	C681.447876,843.551819 677.076538,834.150879 668.686584,826.688477 
	C660.081177,819.034424 650.217224,813.489807 639.217834,810.278381 
	C624.194336,805.892151 609.002380,802.086609 593.936401,797.841492 
	C581.757385,794.409851 569.627930,790.792542 557.539368,787.054382 
	C553.416504,785.779480 549.434692,784.000366 545.473328,782.258606 
	C489.870056,757.810791 498.180817,689.890381 534.262146,665.140198 
	C549.854370,654.444519 567.105164,649.267334 585.567566,647.173035 
	C619.315308,643.344788 651.293396,648.952393 681.238220,665.231995 
	C684.401245,666.951660 687.382385,669.005920 691.271606,671.415222 
	C688.832092,676.917358 686.623169,681.899414 684.090393,687.611877 
	C680.112305,685.459045 676.977295,683.755798 673.836243,682.063721 
	C642.353943,665.104431 609.119934,660.237366 574.143372,667.770996 
	C563.921448,669.972717 554.495850,674.073425 546.225586,680.593567 
	C529.437805,693.828918 522.297363,714.701355 528.507690,735.134033 
	C530.281799,740.971069 533.858521,746.641479 537.840332,751.345764 
	C545.787598,760.735107 556.549011,766.353821 568.159546,769.900635 
	C584.398682,774.861511 600.847473,779.131653 617.152039,783.884338 
	C629.938843,787.611633 642.773987,791.249390 655.329773,795.660950 
	C661.853577,797.953186 668.102722,801.382080 673.991089,805.071289 
	C718.428894,832.912415 707.164185,890.172119 677.169373,912.351929 
	C667.387329,919.585449 656.727966,925.067993 645.003296,927.987122 
	C604.074646,938.177551 564.340515,935.196594 526.382629,915.948914 
	C515.980652,910.674194 506.249908,904.338318 498.388855,894.723267 
	C501.294556,889.950867 504.012207,885.487366 507.146912,880.338928 
	C539.926636,909.518311 578.119080,918.205994 620.921265,914.050293 
z"/>
<path fill="#C40291" opacity="1.000000" stroke="none" 
	d="
M1470.393066,777.531006 
	C1425.670166,751.846802 1431.638794,685.402832 1473.675537,661.412903 
	C1483.934570,655.558167 1494.731201,651.457458 1506.281982,649.248108 
	C1544.291504,641.977783 1580.556274,646.742737 1614.811646,665.121277 
	C1617.445312,666.534241 1619.966309,668.178650 1622.428833,669.876282 
	C1623.183105,670.396423 1623.567383,671.453552 1624.598267,672.964050 
	C1622.561401,677.360535 1620.387451,682.052612 1617.814819,687.605225 
	C1613.841187,685.453613 1610.722168,683.758972 1607.597900,682.073914 
	C1576.119873,665.096497 1542.803955,659.886230 1507.964111,668.010620 
	C1498.785522,670.151001 1489.557861,674.328308 1481.744263,679.623596 
	C1463.517456,691.975830 1456.124146,712.956238 1462.112915,734.145813 
	C1463.934204,740.590332 1467.944580,746.855896 1472.328491,752.039551 
	C1480.034912,761.151978 1490.644043,766.463196 1501.922729,769.900818 
	C1518.166016,774.851746 1534.613770,779.127563 1550.919312,783.880310 
	C1563.707153,787.607910 1576.513428,791.324036 1589.108154,795.639221 
	C1595.034302,797.669739 1600.712646,800.712036 1606.110352,803.950745 
	C1653.217041,832.214417 1641.375977,892.521423 1608.354614,913.943909 
	C1599.259399,919.844360 1589.083618,925.052002 1578.670776,927.777039 
	C1537.506714,938.549500 1497.388184,935.138062 1459.218140,915.468323 
	C1449.161377,910.285828 1439.772461,904.017151 1432.100586,894.734619 
	C1435.052246,889.936829 1437.789307,885.487854 1440.710815,880.739197 
	C1442.489868,881.821594 1443.716309,882.342407 1444.665527,883.178040 
	C1473.726807,908.758850 1508.328979,916.646118 1545.920532,914.779785 
	C1559.300415,914.115479 1572.439209,912.009399 1584.742065,906.282959 
	C1606.915161,895.962341 1617.962891,877.669800 1616.051147,854.398315 
	C1615.137451,843.276184 1610.671143,833.890503 1602.218872,826.479980 
	C1593.560181,818.888550 1583.687256,813.376465 1572.682861,810.181335 
	C1557.651733,805.817078 1542.494263,801.887024 1527.381348,797.806152 
	C1508.085938,792.595886 1488.603271,787.924438 1470.393066,777.531006 
z"/>
<path fill="#D00381" opacity="1.000000" stroke="none" 
	d="
M1218.207275,773.753296 
	C1182.671875,749.938843 1185.731934,691.838989 1219.262573,666.749146 
	C1235.004883,654.969482 1252.844727,649.504089 1272.000000,647.255798 
	C1304.997437,643.382812 1336.393188,648.547852 1365.942993,663.956726 
	C1370.014038,666.079590 1373.830688,668.690430 1378.499390,671.520447 
	C1375.923096,677.058228 1373.617432,682.013977 1371.007690,687.623657 
	C1367.259277,685.559998 1364.404175,683.974731 1361.536987,682.411743 
	C1330.155762,665.305481 1296.900879,660.001465 1262.008423,667.810181 
	C1253.414551,669.733521 1244.762207,673.327759 1237.302002,678.010315 
	C1217.633667,690.355591 1211.147705,709.055908 1214.610107,731.506287 
	C1215.805664,739.257812 1219.386475,745.956238 1224.902466,751.651978 
	C1233.217407,760.238098 1243.219604,766.169128 1254.490601,769.632324 
	C1271.031372,774.714722 1287.793945,779.071045 1304.407715,783.922302 
	C1317.187012,787.653870 1329.999390,791.336121 1342.566406,795.703979 
	C1348.788330,797.866577 1354.748047,801.106628 1360.387085,804.573669 
	C1405.873657,832.540283 1394.506104,891.463562 1362.556641,913.628967 
	C1350.311523,922.124084 1336.891113,927.761414 1322.280640,930.367310 
	C1283.040039,937.366211 1245.289917,933.543091 1209.906128,914.025513 
	C1200.885864,909.049988 1192.379150,903.293152 1185.477905,894.751038 
	C1188.336060,889.919861 1190.982666,885.446228 1193.670288,880.903259 
	C1195.451294,881.685303 1196.482788,881.873352 1197.150024,882.469360 
	C1226.297485,908.504944 1261.138306,916.641113 1299.089233,914.791626 
	C1312.120972,914.156555 1324.999878,912.282166 1336.983398,906.741821 
	C1353.961548,898.892456 1366.151245,886.855957 1369.018555,867.539062 
	C1371.666138,849.703003 1367.046387,834.160950 1351.742065,823.630554 
	C1343.886475,818.225464 1335.171265,813.510437 1326.175781,810.447876 
	C1311.393311,805.415161 1295.980103,802.270813 1280.993286,797.793213 
	C1264.744507,792.938538 1248.590942,787.722107 1232.587158,782.116882 
	C1227.661743,780.391907 1223.364746,776.872864 1218.207275,773.753296 
z"/>
<path fill="#AB01AE" opacity="1.000000" stroke="none" 
	d="
M2104.974609,827.426514 
	C2090.609375,859.051636 2076.204102,889.840515 2062.794922,921.057251 
	C2059.108398,929.638855 2054.404297,933.045288 2045.557129,931.623779 
	C2042.978027,931.209534 2040.328247,931.236572 2036.729004,930.995605 
	C2037.678711,927.989258 2038.183838,925.497070 2039.217163,923.247620 
	C2080.240967,833.939026 2121.346191,744.668030 2162.291504,655.323425 
	C2164.661865,650.150940 2167.430176,646.965759 2173.501221,647.951599 
	C2175.124512,648.215149 2176.853516,648.183777 2178.488281,647.956909 
	C2184.314453,647.148376 2187.553711,649.565125 2189.901611,655.036377 
	C2195.943848,669.114563 2202.583252,682.936340 2208.987061,696.859253 
	C2243.233887,771.317322 2277.484863,845.773438 2311.716309,920.238464 
	C2313.082520,923.210510 2314.265869,926.266663 2315.844238,930.019897 
	C2309.220459,932.689087 2302.864014,932.017456 2296.948730,930.992004 
	C2294.620850,930.588379 2292.400391,926.566040 2291.093262,923.745544 
	C2280.446289,900.774048 2270.028809,877.695984 2259.539551,854.651550 
	C2233.729736,797.949158 2207.922607,741.245667 2182.097412,684.550354 
	C2180.593262,681.248169 2178.937256,678.015015 2177.237793,674.514709 
	C2172.177490,676.092651 2171.675049,680.509888 2170.146729,683.857910 
	C2152.578613,722.348083 2135.149414,760.901550 2117.684082,799.438538 
	C2113.558105,808.542297 2109.435059,817.647217 2104.974609,827.426514 
z"/>
<path fill="#D60371" opacity="1.000000" stroke="none" 
	d="
M1094.330444,913.817444 
	C1094.330444,825.007385 1094.330444,737.172241 1094.330444,648.644775 
	C1101.692383,648.644775 1107.812134,648.644775 1114.648804,648.644775 
	C1114.648804,742.740112 1114.648804,836.462158 1114.648804,930.918457 
	C1107.998535,930.918457 1101.908203,930.918457 1094.330444,930.918457 
	C1094.330444,925.224121 1094.330444,920.008240 1094.330444,913.817444 
z"/>
<path fill="#A101BE" opacity="1.000000" stroke="none" 
	d="
M2368.185791,832.000000 
	C2368.185791,770.456787 2368.185791,709.913513 2368.185791,648.692871 
	C2375.272217,648.692871 2381.115234,648.692871 2386.982910,648.692871 
	C2389.522217,656.023621 2389.922119,920.985596 2387.271240,931.026489 
	C2381.544434,931.026489 2375.691895,931.026489 2370.250488,931.026489 
	C2369.571777,930.280823 2369.314697,930.055847 2369.132080,929.781433 
	C2368.954102,929.513977 2368.735840,929.196716 2368.733887,928.900085 
	C2368.539062,896.933472 2368.363037,864.966736 2368.185791,832.000000 
z"/>
<path fill="#B2039B" opacity="1.000000" stroke="none" 
	d="
M1742.004272,931.652832 
	C1730.390991,931.652832 1719.776489,931.652832 1709.192749,931.652832 
	C1706.355957,925.245605 1706.534790,919.567322 1708.910522,913.243164 
	C1768.713257,913.243164 1828.458862,913.243164 1888.585327,913.243164 
	C1891.941040,918.787903 1890.895142,924.523010 1889.233643,931.652893 
	C1840.536743,931.652893 1791.769775,931.652893 1742.004272,931.652832 
z"/>
<path fill="#B802A0" opacity="1.000000" stroke="none" 
	d="
M1736.019531,778.238708 
	C1787.561768,778.238708 1838.107666,778.238708 1889.620117,778.238708 
	C1889.620117,784.296082 1889.620117,789.680054 1889.620117,795.042542 
	C1882.199829,797.003845 1722.779297,797.648376 1708.266479,795.695740 
	C1708.266479,790.469238 1708.266479,785.091003 1708.266479,778.238708 
	C1717.346436,778.238708 1726.184814,778.238708 1736.019531,778.238708 
z"/>
<path fill="#BB01A2" opacity="1.000000" stroke="none" 
	d="
M1847.998169,666.711365 
	C1800.858887,666.711182 1754.719604,666.711182 1708.005859,666.711182 
	C1708.005859,659.902832 1708.005859,654.435669 1708.005859,648.492920 
	C1768.810181,648.492920 1828.924683,648.492920 1889.799438,648.492920 
	C1889.799438,654.220215 1889.799438,659.672729 1889.799438,666.620911 
	C1876.039551,666.651489 1862.518799,666.681519 1847.998169,666.711365 
z"/>
<path fill="#E4045F" opacity="1.000000" stroke="none" 
	d="
M1102.444092,1145.979004 
	C1099.367432,1147.862671 1096.506958,1150.378296 1093.175781,1151.517334 
	C1080.954956,1155.695557 1070.250000,1150.236694 1066.299316,1137.968628 
	C1065.190063,1134.523682 1064.511475,1130.809814 1064.400269,1127.195801 
	C1063.879272,1110.271851 1068.468018,1094.878052 1079.539429,1081.872437 
	C1091.518677,1067.800293 1108.873291,1066.008667 1120.404785,1075.529175 
	C1121.318726,1076.283813 1122.717773,1076.450928 1124.926636,1077.279297 
	C1126.868896,1062.895752 1128.726196,1049.141479 1130.573486,1035.461426 
	C1137.464600,1034.175537 1138.230225,1034.536987 1137.660278,1040.111084 
	C1136.644775,1050.041016 1135.242432,1059.931152 1134.033569,1069.841675 
	C1131.092163,1093.959229 1128.322754,1118.099609 1125.052979,1142.172363 
	C1124.620117,1145.359497 1126.604248,1151.949829 1120.340576,1151.081421 
	C1115.756958,1150.445923 1117.860229,1145.050781 1117.931274,1141.651733 
	C1117.993286,1138.677612 1118.625366,1135.715454 1119.375000,1131.359131 
	C1118.402954,1127.950562 1117.061646,1125.931030 1115.891113,1123.176758 
	C1121.749023,1112.982666 1121.941162,1102.193970 1123.554810,1091.736328 
	C1124.185791,1087.646973 1122.448730,1084.729370 1119.700073,1082.043945 
	C1111.320190,1073.856812 1097.398804,1073.723877 1088.239990,1082.978027 
	C1074.434814,1096.927124 1069.673828,1114.213013 1073.578735,1133.341064 
	C1075.850464,1144.469116 1083.711060,1148.280518 1094.641846,1144.982300 
	C1096.224121,1144.504883 1097.736572,1143.795776 1100.070801,1143.891602 
	C1101.388184,1145.052612 1101.916138,1145.515747 1102.444092,1145.979004 
z"/>
<path fill="#E2055E" opacity="1.000000" stroke="none" 
	d="
M1015.428772,1135.908447 
	C1011.408081,1139.852783 1007.804993,1144.375244 1003.290527,1147.635742 
	C988.086060,1158.617432 972.480774,1152.315063 968.719299,1134.020630 
	C962.218262,1102.401855 988.710205,1068.858521 1019.396729,1069.881836 
	C1021.385620,1069.948120 1023.398010,1070.080811 1025.346313,1070.457642 
	C1033.825928,1072.097900 1034.932129,1073.223877 1033.968018,1081.762573 
	C1031.541382,1103.253540 1028.815063,1124.710449 1026.197021,1146.179688 
	C1025.871460,1148.850586 1025.630005,1152.195679 1021.884094,1151.189209 
	C1020.540039,1150.828003 1019.373169,1147.773315 1019.136719,1145.825073 
	C1018.823486,1143.244873 1019.502563,1140.544067 1019.867371,1136.508545 
	C1019.777527,1133.746460 1019.575500,1132.370972 1019.126038,1129.310791 
	C1017.297058,1132.574585 1016.362915,1134.241577 1015.428772,1135.908447 
M977.642761,1111.306641 
	C977.618286,1119.200439 976.375122,1127.333374 977.865723,1134.929932 
	C979.910522,1145.350708 989.373901,1149.253540 998.660706,1143.919434 
	C1003.673889,1141.039795 1008.096130,1136.550537 1011.727844,1131.952515 
	C1024.241577,1116.109131 1024.598999,1096.999023 1026.118408,1077.759644 
	C1015.022583,1074.145630 1005.731628,1076.482422 997.123352,1082.434570 
	C987.420166,1089.143921 981.441467,1098.559692 977.642761,1111.306641 
z"/>
<path fill="#E2055E" opacity="1.000000" stroke="none" 
	d="
M1297.837646,1135.934692 
	C1292.193359,1141.414062 1287.808228,1148.225464 1279.818848,1151.115845 
	C1267.710205,1155.496704 1256.954590,1151.461914 1252.822388,1139.890747 
	C1241.888672,1109.272705 1267.088989,1068.597534 1301.710815,1069.959229 
	C1306.528931,1070.148804 1311.293945,1071.694092 1316.941284,1072.776123 
	C1316.529541,1078.066528 1316.346680,1082.306885 1315.847290,1086.509521 
	C1313.647339,1105.023804 1311.360229,1123.527710 1309.091553,1142.033936 
	C1308.848389,1144.016235 1308.924927,1146.181519 1308.104004,1147.905273 
	C1307.412109,1149.358643 1305.631348,1150.293701 1304.332642,1151.458252 
	C1303.379639,1149.947632 1301.783569,1148.505493 1301.613525,1146.911255 
	C1301.299927,1143.972290 1301.823730,1140.943970 1302.124512,1136.700562 
	C1302.250488,1133.943359 1302.250488,1132.438477 1302.250488,1128.464233 
	C1299.956909,1132.346924 1298.897217,1134.140747 1297.837646,1135.934692 
M1279.184448,1145.028442 
	C1286.629761,1141.986694 1291.417847,1136.108765 1295.823975,1129.717773 
	C1306.599243,1114.088745 1307.082520,1096.149292 1308.462891,1078.086548 
	C1299.806152,1074.527710 1292.182617,1075.816284 1284.766968,1079.349854 
	C1266.493286,1088.057373 1254.777954,1112.510620 1259.279663,1132.325684 
	C1261.781982,1143.340088 1265.786133,1146.204224 1279.184448,1145.028442 
z"/>
<path fill="#E2055E" opacity="1.000000" stroke="none" 
	d="
M886.527161,1138.532715 
	C878.777283,1147.523438 869.966980,1152.869629 858.410217,1152.777466 
	C845.409668,1152.673950 836.147949,1146.216187 831.787354,1134.065674 
	C825.242126,1115.827881 832.510498,1089.794800 847.708984,1077.692017 
	C857.843323,1069.621948 869.229675,1066.954224 881.376221,1072.165894 
	C893.576355,1077.400513 897.672791,1088.104614 898.264282,1100.498535 
	C898.922485,1114.290039 895.210083,1126.833496 886.527161,1138.532715 
M880.264099,1135.063843 
	C888.740906,1123.452271 891.455750,1110.299927 889.793884,1096.316162 
	C887.598022,1077.840088 869.216370,1070.114014 854.181946,1081.129761 
	C852.058716,1082.685425 850.021729,1084.523682 848.418274,1086.597290 
	C838.179138,1099.839478 835.441162,1114.952759 839.182373,1130.903320 
	C842.310242,1144.239258 855.519958,1150.176514 868.245056,1144.420288 
	C872.343384,1142.566528 875.669739,1139.006470 880.264099,1135.063843 
z"/>
<path fill="#E2055E" opacity="1.000000" stroke="none" 
	d="
M2102.398926,1069.825317 
	C2107.061279,1070.512695 2111.237305,1070.534302 2114.785889,1072.037354 
	C2127.095703,1077.251221 2129.703369,1092.064697 2119.215088,1100.319824 
	C2113.673340,1104.681763 2106.464600,1107.431763 2099.581299,1109.457520 
	C2090.732666,1112.061890 2081.455078,1113.208130 2071.667725,1115.118042 
	C2070.080566,1125.247437 2070.510986,1134.797363 2078.726318,1141.705200 
	C2086.712158,1148.420288 2096.122803,1147.414185 2105.126709,1143.500000 
	C2108.414307,1142.070801 2111.170410,1139.443604 2114.230713,1137.458374 
	C2116.301025,1136.115479 2118.479736,1134.939453 2122.194824,1132.758179 
	C2121.675049,1136.148071 2121.969238,1138.042358 2121.159912,1138.928223 
	C2111.270020,1149.751831 2099.121338,1154.781250 2084.426025,1152.151001 
	C2073.813965,1150.251587 2066.933105,1143.491943 2064.720215,1133.290161 
	C2060.441406,1113.562744 2064.511230,1095.561279 2078.676025,1080.598267 
	C2084.822754,1074.105225 2092.559326,1070.404907 2102.398926,1069.825317 
M2093.631104,1077.786743 
	C2081.182861,1083.661865 2075.616455,1094.141846 2072.405762,1108.459717 
	C2086.536377,1106.938232 2098.851562,1105.279541 2110.242676,1099.420410 
	C2111.691406,1098.675293 2113.049561,1097.619263 2114.207275,1096.464355 
	C2121.421387,1089.267090 2118.730957,1078.646851 2108.782227,1076.639771 
	C2104.435547,1075.762573 2099.671875,1076.952271 2093.631104,1077.786743 
z"/>
<path fill="#DE055D" opacity="1.000000" stroke="none" 
	d="
M1566.816406,1110.426270 
	C1558.221191,1112.038818 1550.432739,1113.474487 1542.647461,1114.909546 
	C1540.314819,1122.119263 1541.368408,1128.560425 1543.906982,1134.804321 
	C1546.494629,1141.168457 1551.439453,1144.801636 1558.200439,1145.857056 
	C1567.657593,1147.333740 1575.866699,1144.614990 1583.260498,1138.623291 
	C1585.735352,1136.617676 1587.860352,1132.391113 1592.973389,1135.675171 
	C1592.119019,1137.263428 1591.645264,1138.863037 1590.620605,1139.936157 
	C1581.864380,1149.105957 1571.265381,1153.760376 1558.425171,1152.692139 
	C1546.945312,1151.736938 1539.293579,1145.812500 1535.478882,1134.960205 
	C1528.793945,1115.941284 1537.381226,1088.324219 1553.645142,1076.541992 
	C1561.259888,1071.025635 1569.774780,1068.767700 1579.087891,1070.046997 
	C1587.600220,1071.216064 1594.157593,1076.866943 1595.593750,1083.901611 
	C1597.093994,1091.249146 1593.817993,1098.991455 1586.131348,1103.111694 
	C1580.348145,1106.211548 1573.819824,1107.920898 1566.816406,1110.426270 
M1558.930908,1106.182983 
	C1566.479004,1103.725952 1574.327759,1101.919312 1581.483276,1098.612549 
	C1587.564209,1095.802368 1589.538574,1089.903076 1588.094727,1084.435547 
	C1586.817749,1079.599609 1582.403320,1076.566895 1575.825317,1076.006470 
	C1559.710693,1074.633301 1544.129761,1090.208130 1544.619995,1108.140869 
	C1548.894775,1107.585205 1553.087402,1107.040283 1558.930908,1106.182983 
z"/>
<path fill="#E2055E" opacity="1.000000" stroke="none" 
	d="
M1674.935303,1166.055176 
	C1673.937988,1169.249268 1673.458984,1172.182373 1668.348755,1170.766846 
	C1668.147217,1155.869507 1671.447876,1141.018311 1672.998535,1126.049438 
	C1674.538208,1111.189087 1676.505737,1096.373047 1678.337646,1081.103516 
	C1674.449341,1079.682129 1670.978149,1078.413086 1667.506958,1077.144043 
	C1667.486938,1076.492798 1667.466797,1075.841431 1667.446777,1075.190186 
	C1670.986938,1074.195312 1674.527100,1073.200562 1678.797974,1072.000366 
	C1679.851318,1066.897583 1680.654663,1061.345459 1682.167969,1055.994141 
	C1686.291138,1041.412842 1697.725586,1033.605225 1711.115967,1035.999146 
	C1712.592529,1036.263184 1713.943115,1037.233154 1716.498413,1038.398560 
	C1714.580933,1039.968018 1713.574219,1041.503174 1712.390503,1041.654419 
	C1694.148560,1043.984619 1689.189941,1049.124756 1687.951172,1067.373535 
	C1687.862305,1068.682983 1687.939453,1070.003784 1687.939453,1072.335083 
	C1695.069702,1073.075928 1702.024780,1073.798584 1711.025635,1074.733765 
	C1703.069702,1082.960815 1694.122437,1076.999512 1686.755981,1081.158813 
	C1682.916626,1108.884521 1679.006104,1137.125122 1674.935303,1166.055176 
z"/>
<path fill="#E2055E" opacity="1.000000" stroke="none" 
	d="
M1176.187500,1116.485596 
	C1172.192261,1101.323853 1168.395630,1086.955566 1164.576172,1072.501343 
	C1169.766724,1069.911987 1172.382690,1071.370605 1173.593018,1075.806763 
	C1175.167725,1081.578125 1176.624390,1087.381714 1178.129395,1093.172119 
	C1181.390137,1105.717163 1184.623779,1118.269165 1187.933350,1130.801392 
	C1188.512085,1132.993042 1189.407837,1135.100952 1190.796631,1139.078369 
	C1193.115234,1134.890869 1194.736206,1132.164307 1196.169067,1129.342407 
	C1204.897461,1112.152832 1213.537598,1094.918457 1222.319458,1077.756226 
	C1224.177979,1074.124146 1225.648438,1069.328369 1232.265381,1072.104492 
	C1231.454712,1074.373535 1230.933350,1076.552246 1229.944092,1078.492554 
	C1218.619141,1100.701904 1207.223267,1122.875122 1195.845703,1145.057739 
	C1195.542358,1145.649292 1195.368042,1146.391724 1194.902466,1146.800537 
	C1193.049927,1148.427002 1191.237061,1151.022217 1189.166626,1151.275635 
	C1185.433228,1151.732910 1184.700684,1148.146851 1183.920654,1145.195190 
	C1181.967773,1137.804565 1179.969238,1130.426025 1177.981689,1123.044556 
	C1177.463257,1121.119141 1176.918457,1119.200806 1176.187500,1116.485596 
z"/>
<path fill="#E2055E" opacity="1.000000" stroke="none" 
	d="
M783.928833,1061.037109 
	C783.627930,1065.182129 783.414612,1068.414062 783.150818,1072.411133 
	C790.893494,1073.144531 797.907837,1073.808960 805.445679,1074.522949 
	C803.495422,1081.537231 798.698792,1079.178101 795.261597,1079.520874 
	C791.341492,1079.911865 787.352356,1079.611328 782.661743,1079.611328 
	C781.865479,1082.895020 780.917786,1085.652710 780.556702,1088.485352 
	C778.706665,1103.000122 777.000366,1117.533325 775.265930,1132.062744 
	C775.069519,1133.707886 774.808838,1135.384277 774.925537,1137.021362 
	C775.446045,1144.321289 780.236023,1147.772339 787.266052,1145.691040 
	C790.318542,1144.787354 793.158936,1143.167114 797.581543,1141.217163 
	C796.937866,1144.279907 797.141785,1146.529297 796.152832,1147.361816 
	C793.916199,1149.244629 791.243408,1150.874023 788.478699,1151.819702 
	C775.415771,1156.288940 766.249451,1149.701904 767.126099,1136.029541 
	C767.848511,1124.762085 769.590515,1113.559570 770.892456,1102.329712 
	C771.693420,1095.421021 772.516541,1088.514893 773.169006,1082.972534 
	C770.623657,1077.361694 763.452271,1082.490723 762.477051,1076.259521 
	C763.015625,1075.520874 763.312134,1074.653687 763.761414,1074.565674 
	C774.691650,1072.423096 774.682495,1072.435791 776.801819,1061.279175 
	C777.670471,1056.706299 778.387024,1052.086548 779.612183,1047.608398 
	C780.116394,1045.765503 781.778625,1044.239502 783.805603,1041.258179 
	C787.270630,1048.804443 783.518433,1054.486938 783.928833,1061.037109 
z"/>
<path fill="#E2055E" opacity="1.000000" stroke="none" 
	d="
M1854.188110,1047.197754 
	C1853.352173,1055.794067 1852.515259,1063.678955 1851.713257,1071.235596 
	C1858.590088,1076.299072 1867.842773,1069.913452 1873.604248,1076.011597 
	C1873.528320,1076.982788 1873.452393,1077.953979 1873.376465,1078.925293 
	C1869.648315,1079.154785 1865.922974,1079.469971 1862.191406,1079.589355 
	C1858.627686,1079.703491 1855.057739,1079.614014 1850.775391,1079.614014 
	C1849.801147,1086.236572 1848.885742,1091.751099 1848.196289,1097.293823 
	C1846.717651,1109.181396 1845.042725,1121.056763 1844.032837,1132.986694 
	C1842.994385,1145.254639 1848.549194,1149.016235 1859.656250,1144.171021 
	C1861.151855,1143.518677 1862.672485,1142.920166 1864.202637,1142.353516 
	C1864.468872,1142.254761 1864.839844,1142.439209 1865.965576,1142.626221 
	C1865.843506,1144.003906 1866.285400,1146.040283 1865.497070,1146.800049 
	C1859.521118,1152.558716 1852.294434,1154.399536 1844.340332,1152.078003 
	C1838.505981,1150.375122 1835.463867,1145.672485 1835.888916,1137.846558 
	C1836.411255,1128.229248 1837.812378,1118.658203 1838.880737,1109.072388 
	C1839.909424,1099.842285 1840.998413,1090.618774 1842.093506,1081.109619 
	C1837.913086,1079.964722 1834.342285,1078.986816 1830.255859,1077.867676 
	C1833.237183,1071.841431 1838.863892,1075.156250 1843.058594,1071.717773 
	C1846.704468,1063.231323 1845.614990,1052.101807 1851.130493,1040.952393 
	C1852.781738,1043.941895 1853.484497,1045.214111 1854.188110,1047.197754 
z"/>
<path fill="#E2055E" opacity="1.000000" stroke="none" 
	d="
M1474.595703,1079.213867 
	C1456.401855,1091.718018 1452.032593,1109.209106 1454.794800,1128.871948 
	C1456.701538,1142.444580 1467.809570,1149.091553 1481.528076,1145.415161 
	C1486.476318,1144.088989 1490.857056,1140.595215 1495.447266,1138.003052 
	C1497.819092,1136.663574 1499.420898,1133.119019 1503.741943,1135.843262 
	C1502.932861,1137.473511 1502.474609,1139.365356 1501.311035,1140.583618 
	C1494.138916,1148.092651 1485.661255,1152.737305 1474.903320,1152.822510 
	C1459.671631,1152.943115 1449.963745,1146.141479 1446.988037,1131.119507 
	C1443.029297,1111.134766 1448.240479,1093.384155 1462.958252,1079.007446 
	C1470.210449,1071.923340 1479.253540,1068.727539 1489.486572,1069.817627 
	C1497.072144,1070.625732 1503.293579,1073.827148 1507.625122,1080.524048 
	C1504.746338,1084.478149 1502.366699,1083.312988 1499.750244,1081.261108 
	C1492.147949,1075.299438 1483.926147,1074.935059 1474.595703,1079.213867 
z"/>
<path fill="#E4045F" opacity="1.000000" stroke="none" 
	d="
M1913.842285,1100.744873 
	C1912.799072,1109.570435 1911.590332,1117.481567 1910.990967,1125.438599 
	C1910.463989,1132.434570 1910.050293,1140.006470 1917.161255,1144.224854 
	C1924.102417,1148.342651 1930.623657,1145.146851 1936.744507,1141.283203 
	C1938.557373,1140.138916 1940.469849,1139.152466 1942.353394,1138.084229 
	C1943.025513,1139.355347 1943.684692,1140.065674 1943.530762,1140.389038 
	C1938.477417,1151.004150 1922.277466,1154.669800 1914.362915,1151.796265 
	C1908.855103,1149.796631 1905.380737,1145.742798 1904.290405,1140.301758 
	C1903.259155,1135.154419 1902.720825,1129.703735 1903.194702,1124.498291 
	C1904.582031,1109.257812 1906.578369,1094.072876 1908.348633,1078.867432 
	C1908.502441,1077.546387 1908.305176,1075.844360 1909.046997,1075.006226 
	C1910.392578,1073.486206 1912.322876,1072.483521 1914.009155,1071.265015 
	C1914.852417,1072.853638 1916.511597,1074.500854 1916.402222,1076.020874 
	C1915.828979,1083.981934 1914.807373,1091.910645 1913.842285,1100.744873 
z"/>
<path fill="#DE055D" opacity="1.000000" stroke="none" 
	d="
M1788.632568,1150.646240 
	C1784.081909,1152.327026 1783.525879,1149.602539 1783.565796,1146.742798 
	C1783.624268,1142.556763 1784.016235,1138.375366 1784.370239,1132.448975 
	C1777.473755,1138.723755 1772.003174,1143.701294 1766.532593,1148.678833 
	C1765.928223,1148.340454 1765.323975,1148.001953 1764.719727,1147.663452 
	C1764.839355,1146.114746 1764.409668,1144.146973 1765.200317,1143.109863 
	C1766.571655,1141.311523 1768.838379,1140.230957 1770.485596,1138.602661 
	C1780.215820,1128.983276 1787.027222,1117.989990 1787.983398,1103.807617 
	C1788.608887,1094.528931 1790.134644,1085.308472 1791.332275,1076.071777 
	C1791.952881,1071.284790 1794.324829,1069.781616 1799.653687,1072.693604 
	C1798.563965,1081.419189 1797.414185,1090.239380 1796.370361,1099.072144 
	C1794.769897,1112.618408 1793.333252,1126.184692 1791.622925,1139.716797 
	C1791.171875,1143.286133 1789.971436,1146.760864 1788.632568,1150.646240 
z"/>
<path fill="#E4045F" opacity="1.000000" stroke="none" 
	d="
M1405.719238,1090.584595 
	C1402.445801,1077.730347 1400.825195,1076.616943 1388.311523,1077.086304 
	C1386.670532,1077.147827 1384.994263,1076.270020 1381.811401,1075.421021 
	C1387.941650,1069.432373 1394.021729,1069.170654 1400.165283,1070.218506 
	C1405.828979,1071.184448 1410.131348,1074.836670 1411.586060,1080.279541 
	C1413.022217,1085.653564 1414.015381,1091.481201 1413.543213,1096.966919 
	C1412.144043,1113.221680 1409.927856,1129.406250 1408.024170,1145.617310 
	C1407.907715,1146.608887 1408.080933,1147.957642 1407.510010,1148.506836 
	C1406.253418,1149.715820 1404.672119,1151.085449 1403.093872,1151.267578 
	C1402.205933,1151.369995 1400.280151,1149.301758 1400.185303,1148.103516 
	C1399.952393,1145.161255 1400.448853,1142.150391 1400.758423,1139.178101 
	C1402.413574,1123.284424 1404.101318,1107.394409 1405.719238,1090.584595 
z"/>
<path fill="#E2055E" opacity="1.000000" stroke="none" 
	d="
M1942.956299,1138.600586 
	C1944.182495,1135.076538 1945.730225,1132.518188 1947.444946,1130.077148 
	C1952.897583,1122.314819 1956.685669,1114.013428 1957.345093,1104.330200 
	C1957.887451,1096.366699 1959.081787,1088.446655 1960.036987,1080.513184 
	C1960.314819,1078.206055 1960.389893,1075.758667 1961.281128,1073.686401 
	C1961.785034,1072.515015 1963.836060,1071.238892 1965.050171,1071.364502 
	C1966.214966,1071.484985 1967.870728,1073.224976 1968.113770,1074.484253 
	C1968.542480,1076.705566 1968.210693,1079.120239 1967.937012,1081.422974 
	C1965.422485,1102.586548 1962.854492,1123.743530 1960.291748,1144.901367 
	C1960.132080,1146.219971 1960.266602,1147.793091 1959.583374,1148.772827 
	C1958.778320,1149.927246 1957.099243,1151.377686 1956.039917,1151.206787 
	C1954.866333,1151.017456 1953.211670,1149.217896 1953.085571,1147.984863 
	C1952.699341,1144.204224 1952.945068,1140.359009 1952.945068,1135.543091 
	C1949.038208,1137.203857 1946.196167,1138.411865 1942.956299,1138.600586 
z"/>
<path fill="#E2055E" opacity="1.000000" stroke="none" 
	d="
M1356.618408,1078.183350 
	C1356.617188,1077.217651 1356.223267,1075.944580 1356.691528,1075.346069 
	C1357.898193,1073.803589 1359.486450,1072.559692 1360.922241,1071.196533 
	C1361.802734,1072.755127 1363.393188,1074.301758 1363.419312,1075.874390 
	C1363.478027,1079.398071 1362.758301,1082.934692 1361.858154,1087.853516 
	C1359.684937,1093.372070 1362.388794,1096.098267 1364.496094,1099.015869 
	C1359.996460,1108.153442 1359.260498,1118.115479 1358.128418,1127.994873 
	C1357.263550,1135.541992 1356.347290,1143.083008 1355.432129,1150.809692 
	C1350.638916,1152.154053 1347.575439,1151.818604 1348.061646,1146.271362 
	C1348.380005,1142.637695 1349.069580,1139.036499 1350.083008,1134.259766 
	C1350.596680,1131.464600 1350.620361,1129.830200 1350.644165,1128.195923 
	C1352.249146,1113.991821 1353.854248,1099.787598 1355.988159,1084.356323 
	C1356.550781,1081.480591 1356.584595,1079.831909 1356.618408,1078.183350 
z"/>
<path fill="#E4045F" opacity="1.000000" stroke="none" 
	d="
M1742.172607,1138.028442 
	C1744.336060,1140.398560 1746.499512,1142.768799 1749.776123,1145.882568 
	C1753.239746,1146.473755 1755.590332,1146.321167 1757.940918,1146.168579 
	C1759.188354,1145.760620 1760.417114,1145.080811 1761.686523,1144.993774 
	C1766.297241,1144.677734 1765.788452,1146.728760 1761.771240,1149.982178 
	C1758.644775,1151.028320 1757.321899,1151.515137 1755.999023,1152.001953 
	C1753.868530,1152.187256 1751.738037,1152.372437 1748.203613,1152.015625 
	C1745.451538,1151.082031 1744.103271,1150.690552 1742.755127,1150.299194 
	C1735.694336,1147.145752 1733.901367,1140.671997 1733.841431,1134.066040 
	C1733.767456,1125.912231 1734.959106,1117.746704 1736.104980,1108.338867 
	C1736.634644,1105.462402 1736.662964,1103.833374 1736.691162,1102.204346 
	C1736.953491,1099.269775 1737.215820,1096.335083 1737.939697,1092.343994 
	C1738.372437,1090.222656 1738.343506,1089.157837 1738.314697,1088.093140 
	C1738.755737,1083.882935 1739.049927,1079.650635 1739.677490,1075.468506 
	C1740.365479,1070.883789 1743.038330,1070.491211 1747.382690,1072.858154 
	C1747.088379,1075.879883 1746.779907,1079.047485 1746.004150,1083.475952 
	C1745.564697,1085.788696 1745.592529,1086.840454 1745.620483,1087.892334 
	C1745.162476,1092.105835 1744.704346,1096.319214 1743.833374,1101.650146 
	C1743.431885,1103.791504 1743.443359,1104.815552 1743.454834,1105.839600 
	C1743.187378,1108.745850 1742.919922,1111.652222 1742.115723,1115.690552 
	C1741.553101,1118.498535 1741.527100,1120.174316 1741.501099,1121.850220 
	C1741.513794,1125.389038 1741.526611,1128.927979 1741.327393,1133.678589 
	C1741.467896,1135.936401 1741.820190,1136.982422 1742.172607,1138.028442 
z"/>
<path fill="#E2055E" opacity="1.000000" stroke="none" 
	d="
M2014.127930,1100.957275 
	C2012.271118,1113.444336 2010.414307,1125.931274 2008.022949,1139.643066 
	C2007.453613,1142.518066 2007.418701,1144.168091 2007.383911,1145.818237 
	C2007.299561,1146.964844 2007.215210,1148.111572 2005.985596,1149.670898 
	C2003.320801,1150.053101 2001.801392,1150.022583 2000.281982,1149.992065 
	C2000.709229,1144.514160 2001.136475,1139.036377 2002.065430,1132.331787 
	C2002.600586,1129.471069 2002.634033,1127.837036 2002.667358,1126.203003 
	C2004.281128,1111.987427 2005.894897,1097.771729 2008.037964,1082.331299 
	C2008.608154,1079.470459 2008.649170,1077.834229 2008.690063,1076.198120 
	C2009.715332,1074.533081 2010.740601,1072.868042 2011.765991,1071.203003 
	C2012.958618,1072.781250 2014.953003,1074.260864 2015.162231,1075.960205 
	C2015.504272,1078.736816 2014.683228,1081.656616 2013.838135,1085.906128 
	C2011.623291,1091.509155 2013.023438,1094.465332 2017.003662,1096.375732 
	C2016.544434,1096.933716 2016.085083,1097.491699 2014.855347,1099.038940 
	C2014.084839,1100.028198 2014.127930,1100.957275 2014.127930,1100.957275 
z"/>
<path fill="#DE055D" opacity="1.000000" stroke="none" 
	d="
M2017.432007,1095.906982 
	C2013.023438,1094.465332 2011.623291,1091.509155 2013.617554,1086.669434 
	C2016.284058,1089.123291 2017.696289,1086.842285 2019.217529,1085.099854 
	C2022.247070,1081.630249 2024.976196,1077.818359 2028.400269,1074.793701 
	C2032.456665,1071.210327 2037.471558,1069.131470 2043.038208,1070.328369 
	C2044.566650,1070.657104 2045.750732,1072.588013 2047.092773,1073.783813 
	C2045.660889,1075.186279 2044.113525,1077.902832 2042.815063,1077.788574 
	C2029.345581,1076.603638 2023.454712,1085.737671 2017.432007,1095.906982 
z"/>
<path fill="#DE055D" opacity="1.000000" stroke="none" 
	d="
M1115.720215,1123.911377 
	C1117.061646,1125.931030 1118.402954,1127.950562 1119.691162,1130.525635 
	C1117.759399,1132.132812 1115.556885,1132.852783 1114.069336,1134.305176 
	C1110.990356,1137.311279 1108.291870,1140.707153 1104.357910,1143.759033 
	C1102.640991,1142.962524 1102.003174,1142.349609 1101.742188,1141.166626 
	C1106.652710,1135.034790 1111.186401,1129.473022 1115.720215,1123.911377 
z"/>
<path fill="#DE055D" opacity="1.000000" stroke="none" 
	d="
M1365.063354,1098.448364 
	C1362.388794,1096.098267 1359.684937,1093.372070 1361.634766,1088.642578 
	C1364.803345,1087.546265 1367.698120,1087.048462 1372.316406,1086.254272 
	C1369.761108,1090.697998 1367.695923,1094.289429 1365.063354,1098.448364 
z"/>
<path fill="#DE055D" opacity="1.000000" stroke="none" 
	d="
M1380.559326,1080.260620 
	C1377.193359,1083.303955 1373.827271,1086.347290 1369.509033,1090.251709 
	C1368.443848,1082.829590 1373.008667,1080.677612 1377.281738,1077.870361 
	C1379.168945,1078.816528 1379.864136,1079.538574 1380.559326,1080.260620 
z"/>
<path fill="#DE055D" opacity="1.000000" stroke="none" 
	d="
M1757.286743,1146.073730 
	C1755.590332,1146.321167 1753.239746,1146.473755 1750.452637,1146.334961 
	C1752.221558,1146.021851 1754.427002,1146.000244 1757.286743,1146.073730 
z"/>
<path fill="#1D1624" opacity="1.000000" stroke="none" 
	d="
M1298.825195,1136.038940 
	C1298.897217,1134.140747 1299.956909,1132.346924 1302.250488,1128.464233 
	C1302.250488,1132.438477 1302.250488,1133.943359 1302.019775,1135.894165 
	C1301.130249,1136.274536 1300.471558,1136.208862 1298.825195,1136.038940 
z"/>
<path fill="#DE055D" opacity="1.000000" stroke="none" 
	d="
M1350.414062,1128.635376 
	C1350.620361,1129.830200 1350.596680,1131.464600 1350.311768,1133.539062 
	C1350.095093,1132.344360 1350.139526,1130.709595 1350.414062,1128.635376 
z"/>
<path fill="#DE055D" opacity="1.000000" stroke="none" 
	d="
M1741.732422,1121.397949 
	C1741.527100,1120.174316 1741.553101,1118.498535 1741.862793,1116.377686 
	C1742.085693,1117.603638 1742.024658,1119.274780 1741.732422,1121.397949 
z"/>
<path fill="#DE055D" opacity="1.000000" stroke="none" 
	d="
M2000.361084,1150.478882 
	C2001.801392,1150.022583 2003.320801,1150.053101 2005.599609,1150.110107 
	C2004.386230,1150.412842 2002.413208,1150.689331 2000.361084,1150.478882 
z"/>
<path fill="#DE055D" opacity="1.000000" stroke="none" 
	d="
M1356.389404,1078.628296 
	C1356.584595,1079.831909 1356.550781,1081.480591 1356.246582,1083.569824 
	C1356.037598,1082.364868 1356.099121,1080.718994 1356.389404,1078.628296 
z"/>
<path fill="#DE055D" opacity="1.000000" stroke="none" 
	d="
M2008.458862,1076.638428 
	C2008.649170,1077.834229 2008.608154,1079.470459 2008.301758,1081.544189 
	C2008.100220,1080.347290 2008.163940,1078.713013 2008.458862,1076.638428 
z"/>
<path fill="#DE055D" opacity="1.000000" stroke="none" 
	d="
M2002.436768,1126.642090 
	C2002.634033,1127.837036 2002.600586,1129.471069 2002.304443,1131.543945 
	C2002.096436,1130.348999 2002.151245,1128.715210 2002.436768,1126.642090 
z"/>
<path fill="#DE055D" opacity="1.000000" stroke="none" 
	d="
M2007.612549,1145.372559 
	C2007.418701,1144.168091 2007.453613,1142.518066 2007.759766,1140.427002 
	C2007.967651,1141.633179 2007.904297,1143.280029 2007.612549,1145.372559 
z"/>
<path fill="#DE055D" opacity="1.000000" stroke="none" 
	d="
M1736.457397,1102.640869 
	C1736.662964,1103.833374 1736.634644,1105.462402 1736.344604,1107.528809 
	C1736.129761,1106.336670 1736.176636,1104.707031 1736.457397,1102.640869 
z"/>
<path fill="#1D1624" opacity="1.000000" stroke="none" 
	d="
M1016.468140,1135.993164 
	C1016.362915,1134.241577 1017.297058,1132.574585 1019.126038,1129.310791 
	C1019.575500,1132.370972 1019.777527,1133.746460 1019.783264,1135.679443 
	C1018.893799,1136.183838 1018.200684,1136.130859 1016.468140,1135.993164 
z"/>
<path fill="#E4045F" opacity="1.000000" stroke="none" 
	d="
M1381.596436,1079.776978 
	C1379.864136,1079.538574 1379.168945,1078.816528 1377.977051,1077.530273 
	C1379.721802,1075.160156 1381.896362,1073.021729 1385.503662,1075.562866 
	C1384.456299,1076.924194 1383.545044,1078.108765 1381.596436,1079.776978 
z"/>
<path fill="#DE055D" opacity="1.000000" stroke="none" 
	d="
M1756.476929,1152.094971 
	C1757.321899,1151.515137 1758.644775,1151.028320 1760.672363,1150.422852 
	C1759.902954,1150.932129 1758.428955,1151.560059 1756.476929,1152.094971 
z"/>
<path fill="#DE055D" opacity="1.000000" stroke="none" 
	d="
M1743.077393,1150.681763 
	C1744.103271,1150.690552 1745.451538,1151.082031 1747.424438,1151.792236 
	C1746.499390,1151.762085 1744.949463,1151.413208 1743.077393,1150.681763 
z"/>
<path fill="#DE055D" opacity="1.000000" stroke="none" 
	d="
M1743.658325,1105.502930 
	C1743.443359,1104.815552 1743.431885,1103.791504 1743.615479,1102.419922 
	C1743.827637,1103.103638 1743.844727,1104.135010 1743.658325,1105.502930 
z"/>
<path fill="#DE055D" opacity="1.000000" stroke="none" 
	d="
M1738.118774,1088.451416 
	C1738.343506,1089.157837 1738.372437,1090.222656 1738.192627,1091.647217 
	C1737.963623,1090.941406 1737.943237,1089.875610 1738.118774,1088.451416 
z"/>
<path fill="#DE055D" opacity="1.000000" stroke="none" 
	d="
M1742.216187,1137.532959 
	C1741.820190,1136.982422 1741.467896,1135.936401 1741.239502,1134.559814 
	C1741.662231,1135.165283 1741.961060,1136.101440 1742.216187,1137.532959 
z"/>
<path fill="#DE055D" opacity="1.000000" stroke="none" 
	d="
M1745.816284,1087.538940 
	C1745.592529,1086.840454 1745.564697,1085.788696 1745.739136,1084.380005 
	C1745.964966,1085.077271 1745.988525,1086.131470 1745.816284,1087.538940 
z"/>
<path fill="#E4045F" opacity="1.000000" stroke="none" 
	d="
M1101.365356,1141.736816 
	C1102.003174,1142.349609 1102.640991,1142.962524 1103.731934,1144.059937 
	C1104.077271,1145.121582 1103.762451,1145.544922 1102.842529,1145.896729 
	C1101.916138,1145.515747 1101.388184,1145.052612 1100.313232,1143.518799 
	C1100.212646,1142.016235 1100.745605,1141.779175 1101.365356,1141.736816 
z"/>
<path fill="#DE055D" opacity="1.000000" stroke="none" 
	d="
M2014.267944,1100.733765 
	C2014.127930,1100.957275 2014.084839,1100.028198 2014.085449,1099.802002 
	C2014.382080,1099.821655 2014.489380,1100.133057 2014.267944,1100.733765 
z"/>
<path fill="#1D1624" opacity="1.000000" stroke="none" 
	d="
M1101.742188,1141.166626 
	C1100.745605,1141.779175 1100.212646,1142.016235 1099.523926,1142.821045 
	C1097.736572,1143.795776 1096.224121,1144.504883 1094.641846,1144.982300 
	C1083.711060,1148.280518 1075.850464,1144.469116 1073.578735,1133.341064 
	C1069.673828,1114.213013 1074.434814,1096.927124 1088.239990,1082.978027 
	C1097.398804,1073.723877 1111.320190,1073.856812 1119.700073,1082.043945 
	C1122.448730,1084.729370 1124.185791,1087.646973 1123.554810,1091.736328 
	C1121.941162,1102.193970 1121.749023,1112.982666 1115.891113,1123.176758 
	C1111.186401,1129.473022 1106.652710,1135.034790 1101.742188,1141.166626 
z"/>
<path fill="#1D1624" opacity="1.000000" stroke="none" 
	d="
M977.839111,1110.515869 
	C981.441467,1098.559692 987.420166,1089.143921 997.123352,1082.434570 
	C1005.731628,1076.482422 1015.022583,1074.145630 1026.118408,1077.759644 
	C1024.598999,1096.999023 1024.241577,1116.109131 1011.727844,1131.952515 
	C1008.096130,1136.550537 1003.673889,1141.039795 998.660706,1143.919434 
	C989.373901,1149.253540 979.910522,1145.350708 977.865723,1134.929932 
	C976.375122,1127.333374 977.618286,1119.200439 977.839111,1110.515869 
z"/>
<path fill="#1D1624" opacity="1.000000" stroke="none" 
	d="
M1278.434937,1145.260010 
	C1265.786133,1146.204224 1261.781982,1143.340088 1259.279663,1132.325684 
	C1254.777954,1112.510620 1266.493286,1088.057373 1284.766968,1079.349854 
	C1292.182617,1075.816284 1299.806152,1074.527710 1308.462891,1078.086548 
	C1307.082520,1096.149292 1306.599243,1114.088745 1295.823975,1129.717773 
	C1291.417847,1136.108765 1286.629761,1141.986694 1278.434937,1145.260010 
z"/>
<path fill="#1D1624" opacity="1.000000" stroke="none" 
	d="
M879.806641,1135.645386 
	C875.669739,1139.006470 872.343384,1142.566528 868.245056,1144.420288 
	C855.519958,1150.176514 842.310242,1144.239258 839.182373,1130.903320 
	C835.441162,1114.952759 838.179138,1099.839478 848.418274,1086.597290 
	C850.021729,1084.523682 852.058716,1082.685425 854.181946,1081.129761 
	C869.216370,1070.114014 887.598022,1077.840088 889.793884,1096.316162 
	C891.455750,1110.299927 888.740906,1123.452271 879.806641,1135.645386 
z"/>
<path fill="#1D1624" opacity="1.000000" stroke="none" 
	d="
M2094.364258,1077.495117 
	C2099.671875,1076.952271 2104.435547,1075.762573 2108.782227,1076.639771 
	C2118.730957,1078.646851 2121.421387,1089.267090 2114.207275,1096.464355 
	C2113.049561,1097.619263 2111.691406,1098.675293 2110.242676,1099.420410 
	C2098.851562,1105.279541 2086.536377,1106.938232 2072.405762,1108.459717 
	C2075.616455,1094.141846 2081.182861,1083.661865 2094.364258,1077.495117 
z"/>
<path fill="#1D1624" opacity="1.000000" stroke="none" 
	d="
M1558.105469,1106.339111 
	C1553.087402,1107.040283 1548.894775,1107.585205 1544.619995,1108.140869 
	C1544.129761,1090.208130 1559.710693,1074.633301 1575.825317,1076.006470 
	C1582.403320,1076.566895 1586.817749,1079.599609 1588.094727,1084.435547 
	C1589.538574,1089.903076 1587.564209,1095.802368 1581.483276,1098.612549 
	C1574.327759,1101.919312 1566.479004,1103.725952 1558.105469,1106.339111 
z"/>
</svg>